<?xml version="1.0" encoding="UTF-8"?>
<!DOCTYPE svg PUBLIC "-//W3C//DTD SVG 1.1//EN" "http://www.w3.org/Graphics/SVG/1.1/DTD/svg11.dtd">
<!-- Creator: CorelDRAW 2019 (64-Bit) -->
<svg xmlns="http://www.w3.org/2000/svg" xml:space="preserve" width="185.725mm" height="205.499mm" version="1.1" style="shape-rendering:geometricPrecision; text-rendering:geometricPrecision; image-rendering:optimizeQuality; fill-rule:evenodd; clip-rule:evenodd"
viewBox="0 0 18693.66 20683.93"
 xmlns:xlink="http://www.w3.org/1999/xlink"
 xmlns:xodm="http://www.corel.com/coreldraw/odm/2003">
 <defs>
  <style type="text/css">
   <![CDATA[
    .str0 {stroke:#2B2A29;stroke-width:20.13;stroke-miterlimit:22.9256}
    .fil2 {fill:#FEFEFE}
    .fil0 {fill:#2B2A29}
    .fil6 {fill:#FFED00}
    .fil1 {fill:#E31E25}
    .fil5 {fill:#7688A1}
    .fil3 {fill:black}
    .fil4 {fill:white}
   ]]>
  </style>
 </defs>
 <g id="Layer_x0020_1">
  <metadata id="CorelCorpID_0Corel-Layer"/>
  <g id="_2033364476480">
   <g>
    <path class="fil0" d="M-0 0l0 12269.89c0,3605.84 3507.64,8463.73 9326.19,8413.65 6231.21,-100.16 9367.48,-5208.44 9367.48,-8413.65l0 -12269.89 -18693.66 0z"/>
    <path class="fil1" d="M206.33 228.61l0 11999.03c0,3526.24 3430.22,8276.88 9120.32,8227.91 6093.66,-97.95 9160.67,-5093.47 9160.67,-8227.91l0 -11999.03 -18280.99 0z"/>
    <g>
     <path class="fil0" d="M9346.83 13211.86l-1024.2 0 545.34 4283.21 -3509.9 -3684.37 -2959.9 0c1147.59,593.98 2254.14,1451.57 3207.42,2259.79l3741.23 3202.26 3741.28 -3202.26c953.29,-808.23 2059.88,-1665.81 3207.46,-2259.79l-2959.93 0 -3509.96 3684.37 545.37 -4283.21 -1024.23 0z"/>
     <path class="fil2" d="M9346.83 13359.75l-818.79 0 521.69 4558.17 -3810.56 -3976.98 -2360.18 0c387.91,205.41 828.28,465.69 1269.37,760.68 460.21,335.2 921.31,673.18 1356.19,1043.2l3842.28 3269.14 3842.28 -3269.14c434.89,-370.02 895.98,-708 1356.19,-1043.2 441.1,-294.99 881.46,-555.27 1269.37,-760.68l-2360.18 0 -3810.56 3976.98 521.7 -4558.17 -818.8 0z"/>
    </g>
    <g>
     <path class="fil3" d="M7054.15 12535.81c-71.47,-21.33 -117.43,-54.13 -170.18,-73.82 -491.85,0 -284.22,-219.8 -74.89,-433.06 134.45,-200.12 231.45,-390.4 377.82,-580.68 175.3,-328.07 277.41,-649.57 277.41,-1007.17 -47.66,-291.98 -110.63,-579.04 -136.15,-857.91 -18.72,-920.23 -219.54,-1044.9 -884.97,-1717.44 -331.87,-216.52 -1172.6,-224.73 -1495.95,-11.48 -309.75,339.55 -389.74,662.7 -364.21,1122 -39.14,114.82 -173.58,191.92 -226.35,332.99 -51.05,483.91 -185.5,769.32 -740.32,784.09 -124.23,18.04 -520.77,75.45 -411.86,-136.15 338.67,-441.25 377.82,-616.77 408.46,-1174.49 88.49,-536.4 481.63,-962.88 522.48,-1518.96 175.3,-680.74 782.86,-600.36 1373.42,-624.97 440.79,-113.18 241.67,-593.81 192.31,-872.66 0,-523.27 245.08,-957.97 442.5,-1428.74 171.88,-547.88 -660.33,-416.65 -949.65,-334.64 -291.03,116.46 -371.01,203.41 -636.5,11.48 -112.32,-168.95 -382.92,-26.24 -382.92,-316.59 62.97,-178.79 73.18,-198.48 22.12,-359.23 0,-308.39 148.07,-244.41 348.89,-364.16 222.94,-214.88 348.88,-419.93 609.27,-615.14 37.44,-47.57 61.27,-82.01 79.99,-131.22 0,-300.19 105.51,-628.25 451,-702.07 297.83,14.77 294.42,-123.03 554.8,-208.33 171.89,-26.24 342.09,32.81 517.37,-32.8 151.47,-22.97 314.85,80.38 468.02,-24.61 277.41,-100.06 343.78,123.03 622.89,123.03 292.73,55.77 234.86,116.46 389.73,360.88 231.46,196.85 219.54,219.8 219.54,516.71 59.57,205.05 156.57,185.36 45.96,459.3 -49.36,75.46 -112.33,127.95 -185.51,178.8 -45.95,52.49 -217.83,264.1 -217.83,314.95 107.21,198.48 -23.83,419.93 62.97,638.09 142.96,144.35 187.2,190.28 243.37,398.6 39.14,365.8 158.28,241.13 418.66,452.73 233.16,331.36 262.09,246.05 645.01,246.05 173.59,67.26 325.06,191.92 537.79,201.77 142.96,-41.02 308.04,-114.82 466.31,-114.82 323.37,121.38 367.61,-32.81 675.65,-32.81 122.53,29.53 236.56,73.82 374.42,86.94 330.17,-16.41 609.27,-141.07 958.16,-86.94 127.64,34.44 173.59,72.18 313.15,24.61 202.52,-103.35 357.4,-57.41 580.34,8.2 274,178.79 520.77,21.32 757.34,382.2 243.37,149.27 348.88,206.68 507.16,478.98 275.71,241.13 374.42,324.78 430.58,693.87 71.47,113.18 158.27,229.65 187.2,382.2 -5.1,377.28 391.44,1605.91 -449.3,1427.11 -105.51,-67.26 -102.11,-80.38 -95.3,27.88 131.04,538.04 672.24,657.78 471.41,1302.44 -216.14,528.19 -391.43,1038.34 -413.55,1619.02 -40.84,342.83 -156.57,250.98 -403.35,415.01 -205.92,277.22 -461.21,874.31 -947.94,734.87 -61.27,-36.08 -107.21,-75.45 -151.47,-93.5 -908.8,167.31 -108.92,-400.24 73.18,-672.55 112.33,-339.55 379.52,-495.38 588.85,-772.6 199.12,-406.81 357.4,-1003.89 49.36,-1381.18 -583.74,-383.84 -1604.87,949.76 -1802.29,1351.65 -54.46,132.87 -98.71,372.36 -236.56,446.18 -163.38,37.72 -233.16,32.8 -296.13,190.27 -73.18,490.47 -444.19,787.37 -917.31,559.36 -146.36,0 -388.02,54.13 -388.02,-134.51 119.13,-255.9 439.09,-369.08 476.53,-675.82 120.83,-337.92 306.33,-475.7 522.48,-733.24 102.11,-164.03 171.88,-324.78 309.74,-457.66 699.47,-493.74 849.24,-839.85 103.81,-1391.01 -168.48,-103.34 -423.77,-50.85 -602.46,-36.08 -633.09,0 -1221.95,-164.04 -1832.93,-164.04 -772.65,86.94 -707.98,766.04 -905.4,1318.85 -245.07,447.81 -205.92,766.04 -216.14,1287.67 30.64,378.92 68.08,518.35 -268.89,757.84 -51.06,57.41 -86.79,136.14 -127.65,213.24 -190.61,254.26 -420.36,408.45 -745.42,423.21z"/>
     <path class="fil4" d="M7207.32 12366.85c-103.81,-80.38 163.38,-265.74 -42.55,-265.74 -23.83,19.69 -423.78,378.93 -396.54,164.03 117.43,-101.7 246.77,-367.43 393.14,-367.43 234.85,126.31 631.39,-18.05 287.61,369.07 -78.29,50.85 -153.17,93.51 -241.67,100.07z"/>
     <path class="fil4" d="M13482.15 12360.29c-61.27,-59.05 245.07,-462.58 -105.51,-213.25 -127.65,172.24 -541.2,198.49 -224.66,8.2 331.87,-311.66 171.89,-280.5 607.58,-185.36 52.75,1.64 156.57,-22.96 183.8,55.77 -20.42,231.3 -256.99,314.95 -461.21,334.64z"/>
     <path class="fil4" d="M10968.47 12055.18c-209.33,-72.18 153.17,-178.8 71.48,-283.78 -74.89,0 -505.47,329.71 -505.47,160.75 115.73,-111.54 294.43,-416.65 437.38,-416.65 134.45,109.9 199.12,121.39 388.03,152.56 217.84,104.98 -97.01,326.43 -204.23,367.43 -56.15,9.84 -56.15,9.84 -187.2,19.69z"/>
     <path class="fil4" d="M7508.55 11814.05c-372.71,-80.38 -308.05,-98.42 -112.33,-377.27 285.92,-580.68 282.51,-1158.09 136.15,-1760.09 -17.02,-159.11 -10.21,-306.75 6.8,-449.45 0,-687.31 -670.53,-1122 -1082.39,-1578.01 -151.46,-301.83 -142.96,-70.54 -326.76,-70.54 -1070.49,-187 -1499.36,45.93 -1729.11,1048.18 -5.1,311.66 -39.14,246.05 -161.68,482.26 -102.11,109.9 -280.81,183.71 -430.57,154.19 -221.24,-170.6 216.13,-1046.54 292.72,-1205.65 136.15,-328.08 178.7,-569.21 248.48,-902.2 207.63,-400.24 963.26,-341.19 1364.9,-364.16 6.8,1.64 422.06,580.68 451,347.75 -103.82,-232.93 -216.14,-406.81 -216.14,-644.66 27.23,-145.99 54.46,-287.06 28.93,-416.64 -258.69,-702.07 163.38,-1177.77 362.5,-1820.79 71.48,-359.24 95.31,-311.67 360.81,-582.32 34.03,-41.01 274,-434.7 47.65,-326.44 -246.77,295.26 -405.04,419.93 -806.69,419.93 -321.66,-24.6 -568.43,-1.64 -862.86,75.46 -444.19,218.16 -512.26,-42.65 -131.04,-173.88 159.98,-26.25 371,13.13 371,-188.64 -47.65,-60.69 -430.57,57.41 -490.14,78.74 -177,111.54 -451,406.81 -451,73.82 -66.37,-333 -71.47,-362.52 229.76,-488.83 64.67,-54.13 108.92,-136.15 153.16,-203.41 212.74,-224.73 759.04,-475.69 672.25,-838.21 15.32,-323.15 177,-395.32 479.93,-424.85 119.13,-29.52 456.11,-388.76 563.32,-180.44 -5.1,27.89 -153.16,116.46 -192.31,183.72 -79.99,219.8 -319.95,187 -522.49,288.7 -6.8,3.28 -274,149.28 -154.86,167.31 323.36,-187 473.12,-216.52 794.78,-9.84 444.19,168.96 767.54,-392.04 1220.25,44.3 285.91,505.22 -413.56,697.15 -413.56,341.19 27.23,-77.1 119.13,-121.39 119.13,-185.36 -229.76,-277.22 -993.9,374 -503.75,741.43 267.19,137.79 132.74,232.93 530.98,232.93 224.65,83.66 245.07,80.38 464.61,-54.13 192.32,0 144.67,198.49 120.84,336.27 18.71,295.26 185.5,423.21 301.23,684.03 39.14,436.33 141.26,347.75 498.65,588.89 234.85,249.33 350.58,247.68 690.96,293.62 285.91,83.65 377.82,214.88 714.79,175.52 119.13,-41.02 207.63,-72.18 340.38,-72.18 340.38,52.49 582.04,-103.34 946.24,-16.41 280.81,36.08 420.36,-31.16 704.59,-91.86 185.5,0 336.97,70.53 527.58,70.53 413.56,-98.42 343.78,-88.57 759.04,44.3 347.18,32.8 348.89,83.65 602.46,311.66 258.69,124.67 280.81,296.9 474.83,483.91 274.01,165.67 272.3,185.36 365.9,492.11 127.65,209.96 308.05,329.71 228.06,611.84 0,283.78 297.83,872.66 -59.57,1102.31 -483.33,50.85 -209.34,-1164.65 -471.42,-1164.65 -90.19,57.41 -45.95,1035.06 -42.55,1233.54 57.86,241.13 117.43,369.08 274.01,592.17 413.55,498.66 226.35,756.2 10.21,1331.96 -110.62,373.99 -144.66,733.23 -238.26,1103.95 -64.67,126.31 -202.52,162.39 -313.14,239.49 -246.78,332.99 -864.56,247.69 -536.09,-160.75 524.18,-460.95 789.67,-1230.26 462.91,-1860.15 -131.05,-182.08 -282.51,-242.77 -461.21,-331.36 -520.77,-298.54 -919.01,-560.99 -1133.45,-1090.83 -86.79,-406.81 -42.55,-682.38 -340.38,-969.44 -405.04,-224.74 -68.07,137.78 23.82,269.01 102.11,247.69 76.59,518.35 175.3,777.53 -28.93,291.98 -1635.51,313.3 -1897.6,291.98 -721.6,-137.79 -1579.34,-442.9 -2028.63,314.94 -124.25,342.83 -188.91,697.15 -362.51,1033.42 -185.5,475.7 -107.21,1053.1 -107.21,1568.18 -56.16,219.8 -330.17,357.59 -541.2,372.35z"/>
     <path class="fil4" d="M11359.91 11518.79c-316.55,-90.21 -399.94,-159.11 -216.14,-474.06 219.54,-246.04 430.57,-437.97 576.94,-731.59 245.07,-323.15 653.51,-382.21 730.1,-825.1 -8.51,-314.95 -64.67,-377.27 -253.57,-624.97 -330.17,-265.74 -382.93,-203.41 62.97,-328.08 362.5,-118.11 267.19,-96.78 522.48,257.54 136.15,154.19 735.21,505.22 735.21,579.04 -840.73,415.01 -1206.64,1008.82 -1654.23,1783.05 -85.09,82.02 -178.7,68.9 -256.99,144.36 -85.09,144.35 -81.69,200.13 -246.77,219.8z"/>
     <path class="fil4" d="M3434.25 9960.46c-54.46,-31.17 163.38,-375.64 192.32,-419.93 22.12,-14.77 418.66,-82.01 486.73,-75.46 168.48,180.44 -297.83,590.53 -319.95,413.37 158.28,-257.53 88.49,-339.55 -85.09,-91.86 -81.69,78.74 -163.39,150.91 -274.01,173.88z"/>
     <path class="fil3" d="M4552.39 3497.49c-68.08,-45.93 -44.25,-98.42 -85.09,-144.36 0,-131.22 251.87,85.3 85.09,144.36z"/>
     <path class="fil4" d="M7598.75 3157.94c-170.18,-59.05 -323.36,-1.64 -445.89,-60.69 -163.38,-229.65 -430.57,-241.13 -219.54,-570.84 127.64,-136.15 112.33,-80.38 112.33,80.37 119.13,501.95 1044.95,187 753.93,-459.3 -275.7,-393.68 -651.81,-332.99 -1051.75,-183.72 -262.09,47.57 -471.42,-96.78 -229.76,-305.11 243.37,-127.94 202.52,-247.68 496.95,-186.99 139.55,0 285.92,-98.43 384.62,-72.18 88.5,62.33 149.77,101.7 272.3,131.23 376.12,21.32 195.72,103.34 396.54,318.22 110.62,65.62 241.67,121.39 195.72,287.06 0,162.4 139.55,339.55 57.86,513.43 -91.91,129.59 -170.19,167.32 -250.18,328.08 -81.69,103.34 -110.62,78.74 -229.75,78.74 -103.82,39.37 -129.35,95.14 -243.38,101.7z"/>
     <path class="fil3" d="M5454.38 2829.87c-127.64,-55.77 42.55,-139.42 93.61,-177.16 166.78,-191.91 219.54,-306.74 490.14,-229.65 110.63,8.2 275.71,-142.7 275.71,45.94 -100.41,401.88 -100.41,85.29 -168.48,118.11 -139.55,134.5 -241.67,300.17 -464.62,218.16 -81.69,-6.56 -154.86,18.05 -226.35,24.6zm311.45 -108.26c-192.32,-164.03 90.19,-226.37 35.73,-14.76 -8.51,8.19 -22.12,13.11 -35.73,14.76z"/>
    </g>
   </g>
   <path class="fil5 str0" d="M6747.82 1963.76c399.92,-149.27 776.05,-209.95 1051.75,183.72 291.02,646.3 -634.8,961.24 -753.94,459.31 0,-160.76 15.31,-216.54 -112.32,-80.37 -211.05,329.7 56.15,341.18 219.53,570.83 122.52,59.05 275.71,1.64 445.9,60.69 114.02,-6.57 139.54,-62.33 243.36,-101.7 119.13,0 148.07,24.6 229.76,-78.74 80,-160.75 158.27,-198.48 250.18,-328.08 81.69,-173.88 -57.87,-351.03 -57.87,-513.44 45.96,-165.65 -85.08,-221.44 -195.7,-287.05 -200.82,-214.87 -20.43,-296.89 -396.55,-318.22 -122.53,-29.54 -183.8,-68.9 -272.3,-131.24 -98.71,-26.23 -245.07,72.19 -384.61,72.19 -294.44,-60.69 -253.58,59.05 -496.96,186.99 -241.66,208.33 -32.33,352.68 229.77,305.11z"/>
   <path class="fil6 str0" d="M6747.82 1963.76c399.92,-149.27 776.05,-209.95 1051.75,183.72 291.02,646.3 -634.8,961.24 -753.94,459.31 0,-160.76 15.31,-216.54 -112.32,-80.37 -211.05,329.7 56.15,341.18 219.53,570.83 122.52,59.05 275.71,1.64 445.9,60.69 114.02,-6.57 139.54,-62.33 243.36,-101.7 119.13,0 148.07,24.6 229.76,-78.74 80,-160.75 158.27,-198.48 250.18,-328.08 81.69,-173.88 -57.87,-351.03 -57.87,-513.44 45.96,-165.65 -85.08,-221.44 -195.7,-287.05 -200.82,-214.87 -20.43,-296.89 -396.55,-318.22 -122.53,-29.54 -183.8,-68.9 -272.3,-131.24 -98.71,-26.23 -245.07,72.19 -384.61,72.19 -294.44,-60.69 -253.58,59.05 -496.96,186.99 -241.66,208.33 -32.33,352.68 229.77,305.11z"/>
   <path class="fil6 str0" d="M4113.3 9465.08c-68.07,-6.57 -464.61,60.68 -486.72,75.45 -28.94,44.29 -246.79,388.77 -192.33,419.94 110.62,-22.97 192.33,-95.16 274.02,-173.89 173.57,-247.68 243.35,-165.67 85.08,91.87 22.13,177.15 488.42,-232.94 319.95,-413.37z"/>
   <path class="fil6 str0" d="M7161.36 11897.71c-146.35,0 -275.71,265.73 -393.12,367.43 -27.25,214.88 372.69,-144.34 396.53,-164.03 205.91,0 -61.28,185.36 42.55,265.73 88.49,-6.55 163.37,-49.19 241.67,-100.06 343.79,-387.12 -52.75,-242.77 -287.62,-369.07z"/>
   <path class="fil6 str0" d="M10971.88 11515.5c-142.96,0 -321.65,305.11 -437.39,416.66 0,168.94 430.58,-160.77 505.47,-160.77 81.69,104.99 -280.82,211.6 -71.48,283.79 131.05,-9.84 131.05,-9.84 187.2,-19.68 107.22,-41.02 422.07,-262.46 204.24,-367.45 -188.93,-31.16 -253.59,-42.64 -388.03,-152.55z"/>
   <path class="fil6 str0" d="M13759.55 11969.89c-435.67,-95.15 -275.71,-126.31 -607.58,185.35 -316.55,190.27 97.02,164.04 224.66,-8.2 350.59,-249.33 44.25,154.19 105.51,213.25 204.21,-19.7 440.79,-103.34 461.21,-334.64 -27.23,-78.73 -131.05,-54.13 -183.8,-55.76z"/>
  </g>
 </g>
</svg>
